# xmcd
#
# Track frame offsets: 
#        150
#        15452
#        33458
#        47559
#        61152
#        77048
#        92177
#        107111
#        123201
#        138869
#        154963
#        171082
#
# Disc length: 2451 seconds
#
# Revision: 0
# Processed by: cddbd v1.5.1PL2 Copyright (c) Steve Scherf et al.
# Submitted via: ExactAudioCopy v0.95b3
#
DISCID=9109910c
DTITLE=Joseph Baldwin - Same Ole Me
DYEAR=2003
DGENRE=Country
TTITLE0=Superman
TTITLE1=Shaky Ground
TTITLE2=Field Of Stone
TTITLE3=Ain´t Lookin´ Back
TTITLE4=Drinkin´ Problem
TTITLE5=Same Ole Me
TTITLE6=Two Dollars
TTITLE7=Anymore
TTITLE8=Finish What You Started
TTITLE9=More Than I Can Say
TTITLE10=That Night
TTITLE11=Saving Grace
EXTD=
EXTT0=
EXTT1=
EXTT2=
EXTT3=
EXTT4=
EXTT5=
EXTT6=
EXTT7=
EXTT8=
EXTT9=
EXTT10=
EXTT11=
PLAYORDER=
